# xmcd
#
# Track frame offsets:
#	150
#	25305
#	41330
#	66787
#	84875
#	109370
#	130455
#	145395
#	175775
#	196150
#	214655
#	240862
#
# Disc length: 3580 seconds
#
# Revision: 1
# Processed by: cddbd v1.5.2PL0 Copyright (c) Steve Scherf et al.
# Submitted via: EZCDAudioConverter 8.0.2.1
#
DISCID=9f0dfa0c
DTITLE=Various Artist - Thương Quá Ngày Qua
DYEAR=1990
DGENRE=
TTITLE0=Duy Quang - Chiều biên khu
TTITLE1=Ngọc Lan - Chàng đi theo nước
TTITLE2=Mỹ Thể - Chờ đông
TTITLE3=Kim Anh - Tô châu dạ khúc
TTITLE4=Tuấn Ngọc - Tình khúc thứ nhất
TTITLE5=Lê Uyên Phương - Rừng chưa thay lá
TTITLE6=Ngọc Lan - Dù thương không nói
TTITLE7=Duy Quang - Kỷ niệm sầu
TTITLE8=Kim Anh - Mấy độ thư về
TTITLE9=Vũ Khanh - Lời nguyện cầu nửa đêm
TTITLE10=Mỹ Thể - Chuyện tình TTKH
TTITLE11=Duy Quang - Tình mùa chinh chiến
EXTD=
EXTT0=
EXTT1=
EXTT2=
EXTT3=
EXTT4=
EXTT5=
EXTT6=
EXTT7=
EXTT8=
EXTT9=
EXTT10=
EXTT11=
PLAYORDER=
